<svg width="19" height="19" viewBox="0 0 19 19" fill="none" xmlns="http://www.w3.org/2000/svg">
<path fill-rule="evenodd" clip-rule="evenodd" d="M12.1043 1.48156C11.3724 1.17099 10.569 1 9.72916 1C6.62788 1 4.02254 3.33189 3.68006 6.4142L3.42826 8.68042L3.42201 8.73626C3.30112 9.78972 2.95822 10.8056 2.41594 11.7168L2.38707 11.765L1.80904 12.7284L1.79511 12.7516C1.54468 13.169 1.33723 13.5147 1.2024 13.801C1.06631 14.0899 0.961414 14.4025 1.01368 14.7338C1.0702 15.0919 1.25453 15.4175 1.53257 15.6502C1.78975 15.8655 2.11173 15.9364 2.42953 15.9683C2.7444 16 3.1476 16 3.63432 16H3.66139H15.7969H15.824C16.3107 16 16.7139 16 17.0288 15.9683C17.3466 15.9364 17.6686 15.8655 17.9258 15.6502C18.2038 15.4175 18.3881 15.0919 18.4446 14.7338C18.4969 14.4025 18.392 14.0899 18.2559 13.801C18.1211 13.5147 17.9137 13.169 17.6633 12.7517L17.6632 12.7516L17.6493 12.7284L17.0713 11.765L17.0424 11.7168C16.5001 10.8056 16.1572 9.78972 16.0363 8.73626L16.0301 8.68042L15.9876 8.29802C15.6747 8.40165 15.3446 8.46768 15.0028 8.49078L15.0362 8.79085L15.0428 8.85026C15.1798 10.0442 15.5685 11.1955 16.1831 12.2282L16.2138 12.2795L16.7918 13.2429C17.0597 13.6894 17.2405 13.9918 17.3512 14.2271C17.4633 14.4649 17.4612 14.5504 17.4569 14.5779C17.438 14.6973 17.3766 14.8058 17.2839 14.8834C17.2625 14.9013 17.1903 14.947 16.9287 14.9734C16.67 14.9994 16.3176 15 15.7969 15H3.66139C3.14071 15 2.78836 14.9994 2.52963 14.9734C2.26801 14.947 2.19582 14.9013 2.17443 14.8834C2.08175 14.8058 2.0203 14.6973 2.00146 14.5779C1.99712 14.5504 1.99505 14.4649 2.10708 14.2271C2.21788 13.9918 2.39864 13.6894 2.66653 13.2429L3.24457 12.2795L3.27528 12.2282C3.88987 11.1955 4.27848 10.0442 4.41549 8.85026L4.42215 8.79085L4.67395 6.52463C4.96016 3.94875 7.13743 2 9.72916 2C10.3128 2 10.8755 2.09884 11.4003 2.28142C11.5987 1.98435 11.8358 1.71532 12.1043 1.48156ZM13.9184 2.67115C13.6036 2.81089 13.3316 3.02951 13.1275 3.30192C14.0223 4.1054 14.6335 5.22482 14.7815 6.49933C15.1361 6.49021 15.4678 6.3888 15.7533 6.21822C15.5525 4.82034 14.8841 3.58721 13.9184 2.67115Z" fill="#222222"/>
<path d="M12.1043 1.48156L12.2685 1.67014L12.5701 1.40761L12.202 1.25142L12.1043 1.48156ZM3.68006 6.4142L3.92854 6.44181L3.92854 6.44181L3.68006 6.4142ZM3.42826 8.68042L3.67671 8.70824L3.67673 8.70803L3.42826 8.68042ZM3.42201 8.73626L3.67038 8.76476L3.67046 8.76408L3.42201 8.73626ZM2.41594 11.7168L2.63042 11.8452L2.63077 11.8446L2.41594 11.7168ZM2.38707 11.765L2.60145 11.8936L2.60156 11.8934L2.38707 11.765ZM1.80904 12.7284L2.02341 12.857L2.02341 12.857L1.80904 12.7284ZM1.79511 12.7516L2.00948 12.8802L2.00948 12.8802L1.79511 12.7516ZM1.2024 13.801L1.42857 13.9075L1.42857 13.9075L1.2024 13.801ZM1.01368 14.7338L1.26063 14.6948L1.26063 14.6948L1.01368 14.7338ZM1.53257 15.6502L1.69304 15.4585L1.69304 15.4585L1.53257 15.6502ZM2.42953 15.9683L2.40451 16.2171L2.40451 16.2171L2.42953 15.9683ZM3.63432 16L3.63432 15.75L3.63431 15.75L3.63432 16ZM15.824 16L15.824 15.75H15.824V16ZM17.0288 15.9683L17.0538 16.2171L17.0538 16.2171L17.0288 15.9683ZM17.9258 15.6502L17.7653 15.4585L17.7653 15.4585L17.9258 15.6502ZM18.4446 14.7338L18.1977 14.6948L18.1977 14.6948L18.4446 14.7338ZM18.2559 13.801L18.4821 13.6945L18.4821 13.6945L18.2559 13.801ZM17.6633 12.7517L17.4478 12.8785L17.4489 12.8804L17.6633 12.7517ZM17.6632 12.7516L17.8787 12.6249L17.8776 12.623L17.6632 12.7516ZM17.6493 12.7284L17.4349 12.857L17.4349 12.857L17.6493 12.7284ZM17.0713 11.765L16.8568 11.8934L16.8569 11.8936L17.0713 11.765ZM17.0424 11.7168L16.8276 11.8446L16.8279 11.8452L17.0424 11.7168ZM16.0363 8.73626L15.7879 8.76408L15.7879 8.76476L16.0363 8.73626ZM16.0301 8.68042L15.7816 8.70803L15.7816 8.70824L16.0301 8.68042ZM15.9876 8.29802L16.236 8.27042L16.202 7.96367L15.909 8.0607L15.9876 8.29802ZM15.0028 8.49078L14.986 8.24135L14.7255 8.25895L14.7544 8.51839L15.0028 8.49078ZM15.0362 8.79085L14.7877 8.81846L14.7877 8.81869L15.0362 8.79085ZM15.0428 8.85026L14.7944 8.8781L14.7945 8.87876L15.0428 8.85026ZM16.1831 12.2282L15.9682 12.3561L15.9686 12.3566L16.1831 12.2282ZM16.2138 12.2795L15.9993 12.4079L15.9994 12.4081L16.2138 12.2795ZM16.7918 13.2429L17.0062 13.1143L17.0062 13.1143L16.7918 13.2429ZM17.3512 14.2271L17.1251 14.3336L17.1251 14.3336L17.3512 14.2271ZM17.4569 14.5779L17.2099 14.539L17.2099 14.539L17.4569 14.5779ZM17.2839 14.8834L17.4444 15.0751L17.4444 15.0751L17.2839 14.8834ZM16.9287 14.9734L16.9037 14.7246L16.9037 14.7246L16.9287 14.9734ZM2.52963 14.9734L2.55466 14.7246L2.55466 14.7246L2.52963 14.9734ZM2.17443 14.8834L2.33489 14.6917L2.33489 14.6917L2.17443 14.8834ZM2.00146 14.5779L1.75452 14.6169L1.75452 14.6169L2.00146 14.5779ZM2.10708 14.2271L2.33326 14.3336L2.33326 14.3336L2.10708 14.2271ZM2.66653 13.2429L2.45216 13.1143L2.66653 13.2429ZM3.24457 12.2795L3.45894 12.4081L3.45906 12.4079L3.24457 12.2795ZM3.27528 12.2282L3.48977 12.3566L3.49011 12.3561L3.27528 12.2282ZM4.41549 8.85026L4.66386 8.87876L4.66394 8.8781L4.41549 8.85026ZM4.42215 8.79085L4.67059 8.81869L4.67062 8.81846L4.42215 8.79085ZM4.67395 6.52463L4.92242 6.55224L4.92242 6.55224L4.67395 6.52463ZM11.4003 2.28142L11.3181 2.51754L11.5008 2.58109L11.6082 2.42026L11.4003 2.28142ZM13.9184 2.67115L14.0904 2.48977L13.9694 2.37496L13.817 2.44265L13.9184 2.67115ZM13.1275 3.30192L12.9275 3.15202L12.7903 3.33509L12.9605 3.48793L13.1275 3.30192ZM14.7815 6.49933L14.5332 6.52816L14.5595 6.75512L14.7879 6.74925L14.7815 6.49933ZM15.7533 6.21822L15.8815 6.43285L16.0244 6.34747L16.0008 6.18267L15.7533 6.21822ZM9.72916 1.25C10.5348 1.25 11.305 1.41399 12.0067 1.7117L12.202 1.25142C11.4397 0.927987 10.6031 0.75 9.72916 0.75V1.25ZM3.92854 6.44181C4.25695 3.4861 6.75527 1.25 9.72916 1.25V0.75C6.50049 0.75 3.78814 3.17767 3.43159 6.38659L3.92854 6.44181ZM3.67673 8.70803L3.92854 6.44181L3.43159 6.38659L3.17979 8.65281L3.67673 8.70803ZM3.67046 8.76408L3.67671 8.70824L3.17982 8.6526L3.17356 8.70843L3.67046 8.76408ZM2.63077 11.8446C3.19113 10.903 3.54546 9.85333 3.67038 8.76476L3.17364 8.70775C3.05678 9.7261 2.72531 10.7081 2.2011 11.5889L2.63077 11.8446ZM2.60156 11.8934L2.63042 11.8452L2.20145 11.5884L2.17259 11.6366L2.60156 11.8934ZM2.02341 12.857L2.60145 11.8936L2.1727 11.6364L1.59466 12.5998L2.02341 12.857ZM2.00948 12.8802L2.02341 12.857L1.59467 12.5998L1.58074 12.623L2.00948 12.8802ZM1.42857 13.9075C1.55683 13.6352 1.75654 13.3018 2.00948 12.8802L1.58074 12.623C1.33282 13.0361 1.11764 13.3942 0.976224 13.6945L1.42857 13.9075ZM1.26063 14.6948C1.22032 14.4394 1.29857 14.1835 1.42857 13.9075L0.976224 13.6945C0.834045 13.9964 0.702503 14.3656 0.76674 14.7727L1.26063 14.6948ZM1.69304 15.4585C1.46133 15.2646 1.30772 14.9933 1.26063 14.6948L0.76674 14.7727C0.832671 15.1906 1.04773 15.5704 1.37211 15.8419L1.69304 15.4585ZM2.45456 15.7196C2.15098 15.6891 1.89134 15.6245 1.69304 15.4585L1.37211 15.8419C1.68816 16.1065 2.07249 16.1837 2.40451 16.2171L2.45456 15.7196ZM3.63431 15.75C3.14271 15.75 2.75407 15.7497 2.45456 15.7196L2.40451 16.2171C2.73474 16.2503 3.15248 16.25 3.63433 16.25L3.63431 15.75ZM3.66139 15.75H3.63432V16.25H3.66139V15.75ZM15.7969 15.75H3.66139V16.25H15.7969V15.75ZM15.824 15.75H15.7969V16.25H15.824V15.75ZM17.0038 15.7196C16.7043 15.7497 16.3156 15.75 15.824 15.75L15.824 16.25C16.3058 16.25 16.7236 16.2503 17.0538 16.2171L17.0038 15.7196ZM17.7653 15.4585C17.567 15.6245 17.3073 15.6891 17.0038 15.7196L17.0538 16.2171C17.3858 16.1837 17.7702 16.1065 18.0862 15.8419L17.7653 15.4585ZM18.1977 14.6948C18.1506 14.9933 17.997 15.2646 17.7653 15.4585L18.0862 15.8419C18.4106 15.5704 18.6257 15.1906 18.6916 14.7727L18.1977 14.6948ZM18.0298 13.9075C18.1598 14.1835 18.238 14.4394 18.1977 14.6948L18.6916 14.7727C18.7558 14.3656 18.6243 13.9964 18.4821 13.6945L18.0298 13.9075ZM17.4489 12.8804C17.7018 13.3018 17.9015 13.6352 18.0298 13.9075L18.4821 13.6945C18.3407 13.3942 18.1255 13.0362 17.8777 12.6231L17.4489 12.8804ZM17.4478 12.8784L17.4478 12.8785L17.8788 12.625L17.8787 12.6249L17.4478 12.8784ZM17.4349 12.857L17.4489 12.8803L17.8776 12.623L17.8637 12.5998L17.4349 12.857ZM16.8569 11.8936L17.4349 12.857L17.8637 12.5998L17.2856 11.6364L16.8569 11.8936ZM16.8279 11.8452L16.8568 11.8934L17.2857 11.6366L17.2569 11.5884L16.8279 11.8452ZM15.7879 8.76476C15.9129 9.85333 16.2672 10.903 16.8276 11.8446L17.2572 11.5889C16.733 10.7081 16.4015 9.7261 16.2847 8.70776L15.7879 8.76476ZM15.7816 8.70824L15.7879 8.76408L16.2848 8.70843L16.2785 8.6526L15.7816 8.70824ZM15.7391 8.32563L15.7816 8.70803L16.2785 8.65281L16.236 8.27042L15.7391 8.32563ZM15.909 8.0607C15.6158 8.15778 15.3065 8.21969 14.986 8.24135L15.0197 8.74021C15.3827 8.71568 15.7335 8.64552 16.0662 8.53535L15.909 8.0607ZM15.2847 8.76324L15.2513 8.46317L14.7544 8.51839L14.7877 8.81846L15.2847 8.76324ZM15.2913 8.82242L15.2846 8.76301L14.7877 8.81869L14.7944 8.8781L15.2913 8.82242ZM16.3979 12.1003C15.8014 11.098 15.4242 9.98057 15.2912 8.82176L14.7945 8.87876C14.9355 10.1078 15.3356 11.293 15.9682 12.3561L16.3979 12.1003ZM16.4283 12.1511L16.3975 12.0998L15.9686 12.3566L15.9993 12.4079L16.4283 12.1511ZM17.0062 13.1143L16.4281 12.1509L15.9994 12.4081L16.5774 13.3715L17.0062 13.1143ZM17.5774 14.1205C17.46 13.8712 17.2712 13.5559 17.0062 13.1143L16.5774 13.3715C16.8482 13.8228 17.0209 14.1124 17.1251 14.3336L17.5774 14.1205ZM17.7038 14.6169C17.7202 14.5131 17.6952 14.3707 17.5774 14.1205L17.1251 14.3336C17.2313 14.5591 17.2022 14.5876 17.2099 14.539L17.7038 14.6169ZM17.4444 15.0751C17.5834 14.9588 17.6756 14.796 17.7038 14.6169L17.2099 14.539C17.2005 14.5987 17.1698 14.6529 17.1234 14.6917L17.4444 15.0751ZM16.9537 15.2221C17.2289 15.1944 17.3638 15.1425 17.4444 15.0751L17.1234 14.6917C17.1612 14.6601 17.1517 14.6997 16.9037 14.7246L16.9537 15.2221ZM15.7969 15.25C16.312 15.25 16.6795 15.2497 16.9537 15.2221L16.9037 14.7246C16.6605 14.7491 16.3232 14.75 15.7969 14.75V15.25ZM3.66139 15.25H15.7969V14.75H3.66139V15.25ZM2.50461 15.2221C2.77886 15.2497 3.14632 15.25 3.66139 15.25V14.75C3.1351 14.75 2.79786 14.7491 2.55466 14.7246L2.50461 15.2221ZM2.01396 15.0751C2.09451 15.1425 2.22945 15.1944 2.50461 15.2221L2.55466 14.7246C2.30658 14.6997 2.29713 14.6601 2.33489 14.6917L2.01396 15.0751ZM1.75452 14.6169C1.78278 14.796 1.87494 14.9588 2.01396 15.0751L2.33489 14.6917C2.28855 14.6529 2.25783 14.5987 2.24841 14.539L1.75452 14.6169ZM1.88091 14.1205C1.76308 14.3707 1.73815 14.5131 1.75452 14.6169L2.24841 14.539C2.25608 14.5876 2.22702 14.5591 2.33326 14.3336L1.88091 14.1205ZM2.45216 13.1143C2.18715 13.5559 1.99835 13.8712 1.88091 14.1205L2.33326 14.3336C2.4374 14.1125 2.61013 13.8228 2.8809 13.3715L2.45216 13.1143ZM3.03019 12.1509L2.45216 13.1143L2.8809 13.3715L3.45894 12.4081L3.03019 12.1509ZM3.06078 12.0998L3.03007 12.1511L3.45906 12.4079L3.48977 12.3566L3.06078 12.0998ZM4.16712 8.82176C4.03414 9.98057 3.65696 11.098 3.06044 12.1003L3.49011 12.3561C4.12278 11.293 4.52282 10.1078 4.66386 8.87876L4.16712 8.82176ZM4.1737 8.76301L4.16704 8.82242L4.66394 8.8781L4.67059 8.81869L4.1737 8.76301ZM4.42548 6.49702L4.17368 8.76324L4.67062 8.81846L4.92242 6.55224L4.42548 6.49702ZM9.72916 1.75C7.01004 1.75 4.72575 3.79454 4.42548 6.49702L4.92242 6.55224C5.19456 4.10297 7.26482 2.25 9.72916 2.25V1.75ZM11.4824 2.04531C10.9316 1.85367 10.3412 1.75 9.72916 1.75V2.25C10.2845 2.25 10.8194 2.34401 11.3181 2.51754L11.4824 2.04531ZM11.6082 2.42026C11.7942 2.1417 12.0166 1.88939 12.2685 1.67014L11.9402 1.29298C11.655 1.54126 11.4031 1.82699 11.1924 2.14258L11.6082 2.42026ZM13.817 2.44265C13.4627 2.59993 13.1569 2.84581 12.9275 3.15202L13.3276 3.45183C13.5064 3.21321 13.7446 3.02184 14.0198 2.89964L13.817 2.44265ZM15.0298 6.4705C14.8746 5.13337 14.2331 3.9587 13.2946 3.11591L12.9605 3.48793C13.8115 4.25209 14.3925 5.31628 14.5332 6.52816L15.0298 6.4705ZM14.7879 6.74925C15.1866 6.739 15.5601 6.62486 15.8815 6.43285L15.6251 6.0036C15.3754 6.15274 15.0856 6.24143 14.7751 6.24941L14.7879 6.74925ZM13.7463 2.85252C14.6726 3.73112 15.3133 4.9134 15.5058 6.25377L16.0008 6.18267C15.7917 4.72729 15.0957 3.4433 14.0904 2.48977L13.7463 2.85252Z" fill="black"/>
<path d="M6.83135 15.9059C7.00227 16.6501 7.37891 17.3077 7.90284 17.7767C8.42677 18.2458 9.06872 18.5 9.72913 18.5C10.3895 18.5 11.0315 18.2458 11.5554 17.7767C12.0793 17.3077 12.456 16.6501 12.6269 15.9059" stroke="#222222" stroke-linecap="round"/>
<circle cx="14.5" cy="4.5" r="2.75" fill="#FF0909" stroke="black" stroke-width="0.5"/>
</svg>
