<svg width="21" height="17" viewBox="0 0 21 17" fill="none" xmlns="http://www.w3.org/2000/svg">
<path d="M1.05419 2.87494L19.7973 2.87494C20.1422 2.87494 20.4219 2.45491 20.4217 1.93747C20.4215 1.41995 20.1415 1 19.7966 1L1.05347 1C0.708579 1 0.428874 1.42003 0.429075 1.93747C0.429276 2.45491 0.709359 2.87494 1.05419 2.87494Z" fill="black" stroke="white" stroke-width="0.2"/>
<path d="M19.7976 7.5625L1.05444 7.5625C0.709555 7.5625 0.429851 7.98253 0.430051 8.49997C0.430252 9.0174 0.710335 9.43743 1.05517 9.43743L19.7983 9.43743C20.1432 9.43743 20.4229 9.01741 20.4227 8.49997C20.4225 7.98253 20.1425 7.5625 19.7976 7.5625Z" fill="black" stroke="white" stroke-width="0.2"/>
<path d="M19.7967 14.125L7.3015 14.125C6.95662 14.125 6.67691 14.545 6.6771 15.0625C6.67729 15.58 6.95736 15.9999 7.30219 15.9999L19.7974 15.9999C20.1423 15.9999 20.422 15.5799 20.4218 15.0625C20.4217 14.545 20.1416 14.125 19.7967 14.125Z" fill="black" stroke="white" stroke-width="0.2"/>
</svg>
