<svg width="93" height="34" viewBox="0 0 93 34" fill="none" xmlns="http://www.w3.org/2000/svg">
<path d="M5.27344 25H2.29492V7.00684H5.27344V25ZM22.4609 7.00684V9.00879H17.0898V25H14.1357V9.00879H8.76465V7.00684H22.4609Z" fill="#0D467B"/>
<path d="M40.918 9.79004C40.8366 9.75749 40.7389 9.70052 40.625 9.61914C40.5111 9.53776 40.3483 9.46452 40.1367 9.39941C39.9251 9.31803 39.6566 9.25293 39.3311 9.2041C39.0055 9.15527 38.5905 9.14714 38.0859 9.17969V6.71387C38.8021 6.73014 39.5264 6.81152 40.2588 6.95801C41.0075 7.08822 41.6097 7.2998 42.0654 7.59277C41.9678 7.80436 41.8538 8.04036 41.7236 8.30078C41.5934 8.54492 41.4714 8.78092 41.3574 9.00879C41.2435 9.22038 41.1458 9.39941 41.0645 9.5459C40.9831 9.69238 40.9342 9.77376 40.918 9.79004ZM32.4951 11.7432C32.4951 11.027 32.6172 10.3841 32.8613 9.81445C33.1055 9.24479 33.431 8.74837 33.8379 8.3252C34.2611 7.88574 34.7493 7.54395 35.3027 7.2998C35.8724 7.03939 36.4665 6.86849 37.085 6.78711V9.35059C36.5641 9.52962 36.1328 9.84701 35.791 10.3027C35.4492 10.7422 35.2783 11.1898 35.2783 11.6455C35.2783 12.2803 35.4492 12.793 35.791 13.1836C36.1328 13.5742 36.5641 13.916 37.085 14.209V16.9922C36.5479 16.7318 36.0107 16.4551 35.4736 16.1621C34.9365 15.8529 34.4482 15.4948 34.0088 15.0879C33.5693 14.681 33.2031 14.209 32.9102 13.6719C32.6335 13.1348 32.4951 12.4919 32.4951 11.7432ZM32.8857 21.7041C33.1136 21.8343 33.3984 21.9645 33.7402 22.0947C34.0983 22.2087 34.4645 22.3226 34.8389 22.4365C35.2132 22.5342 35.5876 22.6156 35.9619 22.6807C36.3363 22.7458 36.6862 22.7783 37.0117 22.7783H37.085V25.0977H37.0361C36.6455 25.0977 36.2386 25.0732 35.8154 25.0244C35.4085 24.9919 34.9935 24.9268 34.5703 24.8291C34.1471 24.7314 33.7402 24.6012 33.3496 24.4385C32.9753 24.2594 32.6497 24.0479 32.373 23.8037L32.8857 21.7041ZM38.0859 14.6973C38.623 14.9414 39.1683 15.2018 39.7217 15.4785C40.2913 15.7552 40.804 16.097 41.2598 16.5039C41.7155 16.8945 42.0898 17.3747 42.3828 17.9443C42.6758 18.514 42.8223 19.222 42.8223 20.0684C42.8223 20.6543 42.7083 21.224 42.4805 21.7773C42.2689 22.3307 41.9596 22.8353 41.5527 23.291C41.1621 23.7305 40.6738 24.1048 40.0879 24.4141C39.502 24.7233 38.8346 24.9268 38.0859 25.0244V22.6807C39.4206 22.3551 40.0879 21.4681 40.0879 20.0195C40.0879 19.4499 39.9007 18.9779 39.5264 18.6035C39.152 18.2292 38.6719 17.8792 38.0859 17.5537V14.6973ZM45.7275 6.03027H48.6816V25H45.7275V6.03027ZM55.9814 12.7441C56.2581 13.0208 56.4697 13.3464 56.6162 13.7207C56.779 14.0788 56.8929 14.4613 56.958 14.8682C57.0394 15.2588 57.0882 15.6576 57.1045 16.0645C57.1208 16.4714 57.1289 16.8701 57.1289 17.2607V24.5117V25H54.1504V17.5049C54.1504 16.9515 54.126 16.4225 54.0771 15.918C54.0283 15.4134 53.9144 14.9658 53.7354 14.5752C53.5563 14.1846 53.3122 13.8835 53.0029 13.6719C52.6937 13.444 52.2624 13.3301 51.709 13.3301C51.4811 13.3301 51.1719 13.3708 50.7812 13.4521C50.4069 13.5173 50.0407 13.6312 49.6826 13.7939V11.9141C50.1221 11.6862 50.5941 11.4909 51.0986 11.3281C51.6195 11.1654 52.124 11.084 52.6123 11.084C53.3447 11.084 53.9632 11.2386 54.4678 11.5479C54.9723 11.8408 55.4769 12.2396 55.9814 12.7441ZM67.0654 11.1572C67.9606 11.2061 68.7744 11.4258 69.5068 11.8164C70.2393 12.1908 70.8496 12.6953 71.3379 13.3301C71.8424 13.9486 72.2331 14.6729 72.5098 15.5029C72.7865 16.333 72.9248 17.2201 72.9248 18.1641C72.9248 19.1081 72.7783 19.9951 72.4854 20.8252C72.2087 21.639 71.818 22.3551 71.3135 22.9736C70.8089 23.5758 70.1904 24.0641 69.458 24.4385C68.7256 24.8128 67.9281 25.0326 67.0654 25.0977V22.7539C67.8792 22.5749 68.5384 22.0622 69.043 21.2158C69.5638 20.3695 69.8242 19.3522 69.8242 18.1641C69.8242 17.5618 69.7591 17.0003 69.6289 16.4795C69.515 15.9424 69.3359 15.4622 69.0918 15.0391C68.8477 14.6159 68.5547 14.266 68.2129 13.9893C67.8711 13.7126 67.4886 13.5335 67.0654 13.4521V11.1572ZM60.2539 18.1152C60.2539 17.1712 60.3923 16.2923 60.6689 15.4785C60.9456 14.6647 61.3363 13.9567 61.8408 13.3545C62.3617 12.736 62.9801 12.2396 63.6963 11.8652C64.4124 11.4909 65.2018 11.263 66.0645 11.1816V13.4521C65.2507 13.6312 64.5996 14.1439 64.1113 14.9902C63.623 15.8366 63.3789 16.8538 63.3789 18.042C63.3789 18.6442 63.4359 19.2139 63.5498 19.751C63.68 20.2881 63.859 20.7682 64.0869 21.1914C64.3148 21.6146 64.5915 21.9645 64.917 22.2412C65.2588 22.5179 65.6413 22.6888 66.0645 22.7539V25.0977C65.1693 25.0326 64.3636 24.8128 63.6475 24.4385C62.9313 24.0479 62.321 23.5433 61.8164 22.9248C61.3118 22.3063 60.9212 21.582 60.6445 20.752C60.3841 19.9219 60.2539 19.043 60.2539 18.1152ZM79.4189 11.2305L79.7363 12.6221V30.4199H76.7578V11.2305H79.4189ZM88.7939 15.4053C88.9893 16.154 89.0869 16.9922 89.0869 17.9199C89.0869 18.8477 88.973 19.751 88.7451 20.6299C88.5335 21.4925 88.1999 22.2575 87.7441 22.9248C87.3047 23.5921 86.7432 24.1292 86.0596 24.5361C85.3923 24.9268 84.6029 25.1221 83.6914 25.1221C83.1217 25.1221 82.5765 25.057 82.0557 24.9268C81.5511 24.7965 81.1117 24.6257 80.7373 24.4141V21.875C81.2744 22.5098 81.9336 22.8271 82.7148 22.8271C83.2031 22.8271 83.6426 22.7051 84.0332 22.4609C84.4401 22.2168 84.7819 21.8913 85.0586 21.4844C85.3516 21.0612 85.5794 20.5648 85.7422 19.9951C85.9049 19.4092 85.9863 18.7907 85.9863 18.1396C85.9863 17.5049 85.9131 16.9027 85.7666 16.333C85.6201 15.7633 85.4085 15.2588 85.1318 14.8193C84.8714 14.3799 84.5459 14.0299 84.1553 13.7695C83.7809 13.5091 83.3415 13.3789 82.8369 13.3789C82.4137 13.3789 82.0231 13.4684 81.665 13.6475C81.3232 13.8102 81.014 14.0462 80.7373 14.3555V11.7676C81.1117 11.556 81.5267 11.3932 81.9824 11.2793C82.4382 11.1654 82.9102 11.1084 83.3984 11.1084C83.9355 11.1084 84.4808 11.1816 85.0342 11.3281C85.5876 11.4746 86.1003 11.7188 86.5723 12.0605C87.0605 12.4023 87.5 12.8499 87.8906 13.4033C88.2812 13.9567 88.5824 14.624 88.7939 15.4053Z" fill="#AAAAAA"/>
<path d="M6.27344 24H3.29492V6.00684H6.27344V24ZM23.4609 6.00684V8.00879H18.0898V24H15.1357V8.00879H9.76465V6.00684H23.4609Z" fill="#0094FF"/>
<path d="M41.918 8.79004C41.8366 8.75749 41.7389 8.70052 41.625 8.61914C41.5111 8.53776 41.3483 8.46452 41.1367 8.39941C40.9251 8.31803 40.6566 8.25293 40.3311 8.2041C40.0055 8.15527 39.5905 8.14714 39.0859 8.17969V5.71387C39.8021 5.73014 40.5264 5.81152 41.2588 5.95801C42.0075 6.08822 42.6097 6.2998 43.0654 6.59277C42.9678 6.80436 42.8538 7.04036 42.7236 7.30078C42.5934 7.54492 42.4714 7.78092 42.3574 8.00879C42.2435 8.22038 42.1458 8.39941 42.0645 8.5459C41.9831 8.69238 41.9342 8.77376 41.918 8.79004ZM33.4951 10.7432C33.4951 10.027 33.6172 9.38411 33.8613 8.81445C34.1055 8.24479 34.431 7.74837 34.8379 7.3252C35.2611 6.88574 35.7493 6.54395 36.3027 6.2998C36.8724 6.03939 37.4665 5.86849 38.085 5.78711V8.35059C37.5641 8.52962 37.1328 8.84701 36.791 9.30273C36.4492 9.74219 36.2783 10.1898 36.2783 10.6455C36.2783 11.2803 36.4492 11.793 36.791 12.1836C37.1328 12.5742 37.5641 12.916 38.085 13.209V15.9922C37.5479 15.7318 37.0107 15.4551 36.4736 15.1621C35.9365 14.8529 35.4482 14.4948 35.0088 14.0879C34.5693 13.681 34.2031 13.209 33.9102 12.6719C33.6335 12.1348 33.4951 11.4919 33.4951 10.7432ZM33.8857 20.7041C34.1136 20.8343 34.3984 20.9645 34.7402 21.0947C35.0983 21.2087 35.4645 21.3226 35.8389 21.4365C36.2132 21.5342 36.5876 21.6156 36.9619 21.6807C37.3363 21.7458 37.6862 21.7783 38.0117 21.7783H38.085V24.0977H38.0361C37.6455 24.0977 37.2386 24.0732 36.8154 24.0244C36.4085 23.9919 35.9935 23.9268 35.5703 23.8291C35.1471 23.7314 34.7402 23.6012 34.3496 23.4385C33.9753 23.2594 33.6497 23.0479 33.373 22.8037L33.8857 20.7041ZM39.0859 13.6973C39.623 13.9414 40.1683 14.2018 40.7217 14.4785C41.2913 14.7552 41.804 15.097 42.2598 15.5039C42.7155 15.8945 43.0898 16.3747 43.3828 16.9443C43.6758 17.514 43.8223 18.222 43.8223 19.0684C43.8223 19.6543 43.7083 20.224 43.4805 20.7773C43.2689 21.3307 42.9596 21.8353 42.5527 22.291C42.1621 22.7305 41.6738 23.1048 41.0879 23.4141C40.502 23.7233 39.8346 23.9268 39.0859 24.0244V21.6807C40.4206 21.3551 41.0879 20.4681 41.0879 19.0195C41.0879 18.4499 40.9007 17.9779 40.5264 17.6035C40.152 17.2292 39.6719 16.8792 39.0859 16.5537V13.6973ZM46.7275 5.03027H49.6816V24H46.7275V5.03027ZM56.9814 11.7441C57.2581 12.0208 57.4697 12.3464 57.6162 12.7207C57.779 13.0788 57.8929 13.4613 57.958 13.8682C58.0394 14.2588 58.0882 14.6576 58.1045 15.0645C58.1208 15.4714 58.1289 15.8701 58.1289 16.2607V23.5117V24H55.1504V16.5049C55.1504 15.9515 55.126 15.4225 55.0771 14.918C55.0283 14.4134 54.9144 13.9658 54.7354 13.5752C54.5563 13.1846 54.3122 12.8835 54.0029 12.6719C53.6937 12.444 53.2624 12.3301 52.709 12.3301C52.4811 12.3301 52.1719 12.3708 51.7812 12.4521C51.4069 12.5173 51.0407 12.6312 50.6826 12.7939V10.9141C51.1221 10.6862 51.5941 10.4909 52.0986 10.3281C52.6195 10.1654 53.124 10.084 53.6123 10.084C54.3447 10.084 54.9632 10.2386 55.4678 10.5479C55.9723 10.8408 56.4769 11.2396 56.9814 11.7441ZM68.0654 10.1572C68.9606 10.2061 69.7744 10.4258 70.5068 10.8164C71.2393 11.1908 71.8496 11.6953 72.3379 12.3301C72.8424 12.9486 73.2331 13.6729 73.5098 14.5029C73.7865 15.333 73.9248 16.2201 73.9248 17.1641C73.9248 18.1081 73.7783 18.9951 73.4854 19.8252C73.2087 20.639 72.818 21.3551 72.3135 21.9736C71.8089 22.5758 71.1904 23.0641 70.458 23.4385C69.7256 23.8128 68.9281 24.0326 68.0654 24.0977V21.7539C68.8792 21.5749 69.5384 21.0622 70.043 20.2158C70.5638 19.3695 70.8242 18.3522 70.8242 17.1641C70.8242 16.5618 70.7591 16.0003 70.6289 15.4795C70.515 14.9424 70.3359 14.4622 70.0918 14.0391C69.8477 13.6159 69.5547 13.266 69.2129 12.9893C68.8711 12.7126 68.4886 12.5335 68.0654 12.4521V10.1572ZM61.2539 17.1152C61.2539 16.1712 61.3923 15.2923 61.6689 14.4785C61.9456 13.6647 62.3363 12.9567 62.8408 12.3545C63.3617 11.736 63.9801 11.2396 64.6963 10.8652C65.4124 10.4909 66.2018 10.263 67.0645 10.1816V12.4521C66.2507 12.6312 65.5996 13.1439 65.1113 13.9902C64.623 14.8366 64.3789 15.8538 64.3789 17.042C64.3789 17.6442 64.4359 18.2139 64.5498 18.751C64.68 19.2881 64.859 19.7682 65.0869 20.1914C65.3148 20.6146 65.5915 20.9645 65.917 21.2412C66.2588 21.5179 66.6413 21.6888 67.0645 21.7539V24.0977C66.1693 24.0326 65.3636 23.8128 64.6475 23.4385C63.9313 23.0479 63.321 22.5433 62.8164 21.9248C62.3118 21.3063 61.9212 20.582 61.6445 19.752C61.3841 18.9219 61.2539 18.043 61.2539 17.1152ZM80.4189 10.2305L80.7363 11.6221V29.4199H77.7578V10.2305H80.4189ZM89.7939 14.4053C89.9893 15.154 90.0869 15.9922 90.0869 16.9199C90.0869 17.8477 89.973 18.751 89.7451 19.6299C89.5335 20.4925 89.1999 21.2575 88.7441 21.9248C88.3047 22.5921 87.7432 23.1292 87.0596 23.5361C86.3923 23.9268 85.6029 24.1221 84.6914 24.1221C84.1217 24.1221 83.5765 24.057 83.0557 23.9268C82.5511 23.7965 82.1117 23.6257 81.7373 23.4141V20.875C82.2744 21.5098 82.9336 21.8271 83.7148 21.8271C84.2031 21.8271 84.6426 21.7051 85.0332 21.4609C85.4401 21.2168 85.7819 20.8913 86.0586 20.4844C86.3516 20.0612 86.5794 19.5648 86.7422 18.9951C86.9049 18.4092 86.9863 17.7907 86.9863 17.1396C86.9863 16.5049 86.9131 15.9027 86.7666 15.333C86.6201 14.7633 86.4085 14.2588 86.1318 13.8193C85.8714 13.3799 85.5459 13.0299 85.1553 12.7695C84.7809 12.5091 84.3415 12.3789 83.8369 12.3789C83.4137 12.3789 83.0231 12.4684 82.665 12.6475C82.3232 12.8102 82.014 13.0462 81.7373 13.3555V10.7676C82.1117 10.556 82.5267 10.3932 82.9824 10.2793C83.4382 10.1654 83.9102 10.1084 84.3984 10.1084C84.9355 10.1084 85.4808 10.1816 86.0342 10.3281C86.5876 10.4746 87.1003 10.7188 87.5723 11.0605C88.0605 11.4023 88.5 11.8499 88.8906 12.4033C89.2812 12.9567 89.5824 13.624 89.7939 14.4053Z" fill="black"/>
</svg>
